<svg height='300px' width='300px'  fill="#000000" xmlns:dc="http://purl.org/dc/elements/1.1/" xmlns:cc="http://creativecommons.org/ns#" xmlns:rdf="http://www.w3.org/1999/02/22-rdf-syntax-ns#" xmlns:svg="http://www.w3.org/2000/svg" xmlns="http://www.w3.org/2000/svg" xmlns:sodipodi="http://sodipodi.sourceforge.net/DTD/sodipodi-0.dtd" xmlns:inkscape="http://www.inkscape.org/namespaces/inkscape" version="1.1" viewBox="0 0 32 32" x="0px" y="0px"><g transform="translate(0,-1020.3622)"><path style="color:#000000;font-style:normal;font-variant:normal;font-weight:normal;font-stretch:normal;font-size:medium;line-height:normal;font-family:sans-serif;text-indent:0;text-align:start;text-decoration:none;text-decoration-line:none;text-decoration-style:solid;text-decoration-color:#000000;letter-spacing:normal;word-spacing:normal;text-transform:none;direction:ltr;block-progression:tb;writing-mode:lr-tb;baseline-shift:baseline;text-anchor:start;white-space:normal;clip-rule:nonzero;display:inline;overflow:visible;visibility:visible;opacity:1;isolation:auto;mix-blend-mode:normal;color-interpolation:sRGB;color-interpolation-filters:linearRGB;solid-color:#000000;solid-opacity:1;fill:#000000;fill-opacity:1;fill-rule:nonzero;stroke:none;stroke-width:1;stroke-linecap:round;stroke-linejoin:round;stroke-miterlimit:4;stroke-dasharray:none;stroke-dashoffset:0;stroke-opacity:1;color-rendering:auto;image-rendering:auto;shape-rendering:auto;text-rendering:auto;enable-background:accumulate" d="m 7.5078748,1023.1328 a 0.50005,0.50005 0 0 0 -0.3457,0.1464 l -4.24414,4.2442 a 0.50005,0.50005 0 0 0 0,0.707 l 8.4843702,8.4863 -6.0859302,6.086 a 0.50004997,0.50004997 0 0 0 -0.01,0.01 0.50004997,0.50004997 0 0 0 -0.0234,0.027 0.50004997,0.50004997 0 0 0 -0.0762,0.125 0.50004997,0.50004997 0 0 0 -0.0117,0.029 0.50004997,0.50004997 0 0 0 -0.008,0.024 l -1.75977,5.2812 a 0.50004997,0.50004997 0 0 0 0.63282,0.6309 l 5.3027305,-1.7676 a 0.50004997,0.50004997 0 0 0 0.043,-0.018 0.50004997,0.50004997 0 0 0 0.004,0 0.50004997,0.50004997 0 0 0 0.084,-0.047 0.50004997,0.50004997 0 0 0 0.002,0 0.50004997,0.50004997 0 0 0 0.0371,-0.029 0.50004997,0.50004997 0 0 0 0.002,0 0.50004997,0.50004997 0 0 0 0.0371,-0.035 l 6.0722597,-6.0723 8.48633,8.4844 a 0.50005,0.50005 0 0 0 0.70703,0 l 4.24414,-4.2441 a 0.50005,0.50005 0 0 0 0,-0.7071 l -8.48633,-8.4863 5.61914,-5.6191 a 0.50004994,0.50004994 0 0 0 0.0312,-0.029 l 1.76953,-1.7676 c 0.77739,-0.7774 0.77554,-2.0507 -0.002,-2.8282 l -1.41406,-1.414 c -0.38871,-0.3887 -0.90131,-0.584 -1.41406,-0.584 -0.51276,0 -1.0254,0.1953 -1.41407,0.584 l -1.76757,1.7676 a 0.50004994,0.50004994 0 0 0 -0.0352,0.035 l -5.61328,5.6133 -8.4863302,-8.4843 a 0.50005,0.50005 0 0 0 -0.36133,-0.1465 z m 0.008,1.207 8.1328202,8.1308 -2.12305,2.1231 -0.35351,-0.3535 -1.41407,1.414 0.35352,0.3536 -0.002,0 -5.3027402,-5.3047 1.4160205,-1.4141 -0.7070405,-0.707 -1.41601,1.414 -0.70703,-0.707 2.12304,-2.1211 -0.70898,-0.707 -2.12109,2.1211 -0.70703,-0.7071 3.5371,-3.5371 z m 17.6699302,0.416 c 0.25403,0 0.50804,0.1 0.70703,0.2988 l 1.41406,1.4141 c 0.39796,0.398 0.39784,1.0162 0,1.4141 l -1.41406,1.414 -2.82813,-2.8281 1.41407,-1.4141 c 0.19892,-0.1989 0.45299,-0.2988 0.70703,-0.2988 z m -2.82813,2.4199 1.06055,1.0606 -15.9804702,15.9804 -1.06055,-1.0605 6.0605502,-6.0625 a 0.50005,0.50005 0 0 0 0.0254,-0.023 l 4.24609,-4.2461 5.64844,-5.6485 z m 1.76758,1.7676 1.06055,1.0606 -5.62305,5.623 a 0.50005,0.50005 0 0 0 -0.0254,0.025 l -4.24609,4.2461 -6.0859397,6.0859 -1.06055,-1.0605 15.9804697,-15.9805 z m -14.4882797,0.3477 -2.1211005,2.1211 0.7070405,0.707 2.1210897,-2.1211 -0.7070297,-0.707 z m 0.7070297,2.1211 -1.4140597,1.414 0.70703,0.7071 1.4140597,-1.4141 -0.70703,-0.707 z m 2.12109,0.707 -2.12109,2.1211 0.70703,0.707 2.1211,-2.1211 -0.70704,-0.707 z m 7.42578,4.5937 8.13086,8.1329 -3.5371,3.5371 -0.70704,-0.7071 1.41602,-1.414 -0.70898,-0.7071 -1.41407,1.4141 -0.70703,-0.707 2.1211,-2.1211 -0.70704,-0.7071 -2.12109,2.1211 -0.70703,-0.707 1.41406,-1.4141 -0.70703,-0.707 -1.41406,1.4141 -0.70703,-0.7071 2.12109,-2.1211 -0.70703,-0.707 -2.1211,2.1211 -0.70703,-0.707 1.41407,-1.4141 -0.70704,-0.707 -1.41406,1.414 -0.70703,-0.707 2.12109,-2.1211 -0.35546,-0.3535 0,0 1.41796,-1.416 z m -14.0019502,7.3692 2.3906305,2.3906 -3.5859405,1.1973 1.19531,-3.5879 z"></path></g><style type="text/css">
	.st0{fill:#000000;}
</style></svg>